<?xml version="1.0" encoding="UTF-8" standalone="no"?>
<!DOCTYPE svg PUBLIC "-//W3C//DTD SVG 1.1//EN" "http://www.w3.org/Graphics/SVG/1.1/DTD/svg11.dtd">
<svg xmlns:dc="http://purl.org/dc/elements/1.1/" xmlns:xl="http://www.w3.org/1999/xlink" version="1.1" xmlns="http://www.w3.org/2000/svg" viewBox="-3663.625 -822.625 151.75708 199.75" width="151.75708" height="199.75">
  <defs/>
  <g id="Canvas_2" stroke-opacity="1" stroke-dasharray="none" fill="none" fill-opacity="1" stroke="none">
    <title>Canvas 2</title>
    <g id="Canvas_2_Layer_1">
      <title>Layer 1</title>
      <g id="Graphic_3">
        <path d="M -3541.6356 -791.9163 L -3544.4587 -788.1521 L -3547.0466 -782.7412 L -3547.517 -776.6244 L -3545.635 -769.5666 L -3540.93 -764.6262 L -3533.872 -762.0383 L -3526.8143 -762.2736 L -3516.463 -769.3314 L -3511.993 -781.5649 L -3512.6987 -792.6221 L -3516.9334 -801.5619 L -3526.1085 -809.5607 L -3536.2246 -814.9717 L -3546.1055 -818.0301 L -3557.1627 -819.4416 L -3568.22 -819.4416 L -3577.6303 -818.5006 L -3590.5696 -815.6775 L -3603.509 -810.737 L -3614.3308 -804.6203 L -3622.565 -797.5625 L -3630.3284 -787.9169 L -3635.0336 -777.8007 L -3637.151 -766.5083 L -3637.151 -755.9216 L -3632.681 -743.92335 L -3626.7995 -736.1598 L -3619.5065 -730.9841 L -3615.272 -728.86675 L -3612.9192 -727.4552 L -3618.095 -723.9263 L -3627.27 -719.2211 L -3636.445 -712.8691 L -3644.9145 -704.1645 L -3650.796 -694.9894 L -3655.266 -684.8732 L -3658.3243 -673.5808 L -3657.148 -659.22995 L -3653.619 -644.6439 L -3640.915 -632.1751 L -3625.8585 -626.2936 L -3603.0383 -623 L -3587.276 -625.58785 L -3570.3373 -629.8225 L -3552.2223 -636.8803 L -3539.283 -644.17335 L -3527.7553 -650.2901 L -3523.2854 -653.819 L -3530.5784 -678.99175 L -3542.106 -671.2282 L -3550.105 -665.8172 L -3564.2205 -658.7594 L -3582.1002 -653.5837 L -3595.9805 -650.9959 L -3607.9788 -650.52535 L -3620.6828 -655.4658 L -3626.7995 -666.523 L -3626.7995 -682.2854 L -3620.2123 -691.69576 L -3609.3903 -702.5177 L -3597.8626 -707.9287 L -3589.864 -710.5165 L -3581.865 -711.6928 L -3576.454 -711.6928 L -3569.8667 -713.81014 L -3566.1026 -717.1038 L -3563.75 -721.809 L -3562.3384 -728.3962 L -3562.809 -732.1604 L -3565.8673 -735.21875 L -3572.925 -738.5124 L -3581.3945 -740.3945 L -3593.628 -744.8644 L -3601.862 -750.7459 L -3607.273 -760.862 L -3607.273 -775.4481 L -3600.4505 -785.0938 L -3590.805 -791.681 L -3578.101 -797.3272 L -3566.338 -798.7388 L -3552.928 -798.033 L -3547.517 -796.3862 L -3544.2235 -794.2689 Z" fill="#cbaa80"/>
        <path d="M -3541.6356 -791.9163 L -3544.4587 -788.1521 L -3547.0466 -782.7412 L -3547.517 -776.6244 L -3545.635 -769.5666 L -3540.93 -764.6262 L -3533.872 -762.0383 L -3526.8143 -762.2736 L -3516.463 -769.3314 L -3511.993 -781.5649 L -3512.6987 -792.6221 L -3516.9334 -801.5619 L -3526.1085 -809.5607 L -3536.2246 -814.9717 L -3546.1055 -818.0301 L -3557.1627 -819.4416 L -3568.22 -819.4416 L -3577.6303 -818.5006 L -3590.5696 -815.6775 L -3603.509 -810.737 L -3614.3308 -804.6203 L -3622.565 -797.5625 L -3630.3284 -787.9169 L -3635.0336 -777.8007 L -3637.151 -766.5083 L -3637.151 -755.9216 L -3632.681 -743.92335 L -3626.7995 -736.1598 L -3619.5065 -730.9841 L -3615.272 -728.86675 L -3612.9192 -727.4552 L -3618.095 -723.9263 L -3627.27 -719.2211 L -3636.445 -712.8691 L -3644.9145 -704.1645 L -3650.796 -694.9894 L -3655.266 -684.8732 L -3658.3243 -673.5808 L -3657.148 -659.22995 L -3653.619 -644.6439 L -3640.915 -632.1751 L -3625.8585 -626.2936 L -3603.0383 -623 L -3587.276 -625.58785 L -3570.3373 -629.8225 L -3552.2223 -636.8803 L -3539.283 -644.17335 L -3527.7553 -650.2901 L -3523.2854 -653.819 L -3530.5784 -678.99175 L -3542.106 -671.2282 L -3550.105 -665.8172 L -3564.2205 -658.7594 L -3582.1002 -653.5837 L -3595.9805 -650.9959 L -3607.9788 -650.52535 L -3620.6828 -655.4658 L -3626.7995 -666.523 L -3626.7995 -682.2854 L -3620.2123 -691.69576 L -3609.3903 -702.5177 L -3597.8626 -707.9287 L -3589.864 -710.5165 L -3581.865 -711.6928 L -3576.454 -711.6928 L -3569.8667 -713.81014 L -3566.1026 -717.1038 L -3563.75 -721.809 L -3562.3384 -728.3962 L -3562.809 -732.1604 L -3565.8673 -735.21875 L -3572.925 -738.5124 L -3581.3945 -740.3945 L -3593.628 -744.8644 L -3601.862 -750.7459 L -3607.273 -760.862 L -3607.273 -775.4481 L -3600.4505 -785.0938 L -3590.805 -791.681 L -3578.101 -797.3272 L -3566.338 -798.7388 L -3552.928 -798.033 L -3547.517 -796.3862 L -3544.2235 -794.2689 Z" stroke="black" stroke-linecap="round" stroke-linejoin="round" stroke-width=".25"/>
      </g>
      <g id="Graphic_2">
        <path d="M -3546.8113 -794.9746 L -3549.6344 -791.2105 L -3552.2223 -785.7995 L -3552.693 -779.6828 L -3550.8107 -772.625 L -3546.1055 -767.68455 L -3539.0478 -765.0967 L -3531.99 -765.332 L -3521.6386 -772.3897 L -3517.1686 -784.6232 L -3517.8744 -795.6804 L -3522.109 -804.6203 L -3531.284 -812.6191 L -3541.4004 -818.0301 L -3551.2812 -821.0884 L -3562.3384 -822.5 L -3573.3956 -822.5 L -3582.806 -821.559 L -3595.7453 -818.73585 L -3608.6846 -813.7954 L -3619.5065 -807.6787 L -3627.7406 -800.6209 L -3635.504 -790.9752 L -3640.2093 -780.8591 L -3642.3267 -769.5666 L -3642.3267 -758.97995 L -3637.8567 -746.9817 L -3631.9752 -739.2182 L -3624.682 -734.04245 L -3620.4475 -731.9251 L -3618.095 -730.5136 L -3623.2706 -726.9847 L -3632.4458 -722.2795 L -3641.621 -715.9275 L -3650.09 -707.2229 L -3655.9717 -698.04776 L -3660.4416 -687.9316 L -3663.5 -676.63915 L -3662.3237 -662.2883 L -3658.795 -647.7022 L -3646.091 -635.2335 L -3631.034 -629.352 L -3608.214 -626.0584 L -3592.4516 -628.6462 L -3575.513 -632.8809 L -3557.398 -639.9387 L -3544.4587 -647.2317 L -3532.931 -653.3485 L -3528.461 -656.87735 L -3535.754 -682.0501 L -3547.282 -674.28655 L -3555.2807 -668.8756 L -3569.3962 -661.8178 L -3587.276 -656.6421 L -3601.1562 -654.05424 L -3613.1545 -653.5837 L -3625.8585 -658.5242 L -3631.9752 -669.5814 L -3631.9752 -685.34375 L -3625.388 -694.7541 L -3614.566 -705.5761 L -3603.0383 -710.987 L -3595.0395 -713.5749 L -3587.0407 -714.7512 L -3581.6297 -714.7512 L -3575.0425 -716.8685 L -3571.2783 -720.16214 L -3568.9257 -724.8673 L -3567.514 -731.4546 L -3567.9847 -735.21875 L -3571.043 -738.2771 L -3578.101 -741.57075 L -3586.57 -743.4528 L -3598.8037 -747.9228 L -3607.0377 -753.8042 L -3612.4487 -763.9204 L -3612.4487 -778.5065 L -3605.626 -788.1521 L -3595.9805 -794.7394 L -3583.2765 -800.3856 L -3571.5136 -801.7972 L -3558.1038 -801.0914 L -3552.693 -799.4446 L -3549.399 -797.3272 Z" fill="#424242"/>
        <path d="M -3546.8113 -794.9746 L -3549.6344 -791.2105 L -3552.2223 -785.7995 L -3552.693 -779.6828 L -3550.8107 -772.625 L -3546.1055 -767.68455 L -3539.0478 -765.0967 L -3531.99 -765.332 L -3521.6386 -772.3897 L -3517.1686 -784.6232 L -3517.8744 -795.6804 L -3522.109 -804.6203 L -3531.284 -812.6191 L -3541.4004 -818.0301 L -3551.2812 -821.0884 L -3562.3384 -822.5 L -3573.3956 -822.5 L -3582.806 -821.559 L -3595.7453 -818.73585 L -3608.6846 -813.7954 L -3619.5065 -807.6787 L -3627.7406 -800.6209 L -3635.504 -790.9752 L -3640.2093 -780.8591 L -3642.3267 -769.5666 L -3642.3267 -758.97995 L -3637.8567 -746.9817 L -3631.9752 -739.2182 L -3624.682 -734.04245 L -3620.4475 -731.9251 L -3618.095 -730.5136 L -3623.2706 -726.9847 L -3632.4458 -722.2795 L -3641.621 -715.9275 L -3650.09 -707.2229 L -3655.9717 -698.04776 L -3660.4416 -687.9316 L -3663.5 -676.63915 L -3662.3237 -662.2883 L -3658.795 -647.7022 L -3646.091 -635.2335 L -3631.034 -629.352 L -3608.214 -626.0584 L -3592.4516 -628.6462 L -3575.513 -632.8809 L -3557.398 -639.9387 L -3544.4587 -647.2317 L -3532.931 -653.3485 L -3528.461 -656.87735 L -3535.754 -682.0501 L -3547.282 -674.28655 L -3555.2807 -668.8756 L -3569.3962 -661.8178 L -3587.276 -656.6421 L -3601.1562 -654.05424 L -3613.1545 -653.5837 L -3625.8585 -658.5242 L -3631.9752 -669.5814 L -3631.9752 -685.34375 L -3625.388 -694.7541 L -3614.566 -705.5761 L -3603.0383 -710.987 L -3595.0395 -713.5749 L -3587.0407 -714.7512 L -3581.6297 -714.7512 L -3575.0425 -716.8685 L -3571.2783 -720.16214 L -3568.9257 -724.8673 L -3567.514 -731.4546 L -3567.9847 -735.21875 L -3571.043 -738.2771 L -3578.101 -741.57075 L -3586.57 -743.4528 L -3598.8037 -747.9228 L -3607.0377 -753.8042 L -3612.4487 -763.9204 L -3612.4487 -778.5065 L -3605.626 -788.1521 L -3595.9805 -794.7394 L -3583.2765 -800.3856 L -3571.5136 -801.7972 L -3558.1038 -801.0914 L -3552.693 -799.4446 L -3549.399 -797.3272 Z" stroke="black" stroke-linecap="round" stroke-linejoin="round" stroke-width=".25"/>
      </g>
    </g>
  </g>
</svg>
